<svg width="500" height="750" xmlns="http://www.w3.org/2000/svg">
  <defs>
    <marker id="arrowhead" markerWidth="10" markerHeight="7" refX="10" refY="3.5" orient="auto">
      <polygon points="0 0, 10 3.5, 0 7" fill="#333"/>
    </marker>
  </defs>
  
  <!-- Title -->
  <text x="250" y="25" text-anchor="middle" font-family="Arial" font-size="14" font-weight="bold" fill="#333">FHIR to OMOP Concept Transformation Base Pattern</text>
  
  <!-- 1. Extract Coded Data -->
  <rect x="150" y="50" width="200" height="60" rx="10" fill="#e3f2fd" stroke="#1976d2" stroke-width="2"/>
  <text x="250" y="75" text-anchor="middle" font-family="Arial" font-size="12" font-weight="bold">1. Extract Coded Data</text>
  <text x="250" y="90" text-anchor="middle" font-family="Arial" font-size="10" fill="#666">From FHIR Resource</text>
  
  <!-- 2. Consult OMOP Vocabulary -->
  <rect x="150" y="150" width="200" height="60" rx="10" fill="#e8f5e8" stroke="#2e7d32" stroke-width="2"/>
  <text x="250" y="175" text-anchor="middle" font-family="Arial" font-size="12" font-weight="bold">2. Consult OMOP</text>
  <text x="250" y="190" text-anchor="middle" font-family="Arial" font-size="12" font-weight="bold">Vocabulary</text>
  
  <!-- 3. Determine Domain -->
  <rect x="150" y="250" width="200" height="60" rx="10" fill="#e8f5e8" stroke="#2e7d32" stroke-width="2"/>
  <text x="250" y="275" text-anchor="middle" font-family="Arial" font-size="12" font-weight="bold">3. Determine Domain</text>
  <text x="250" y="290" text-anchor="middle" font-family="Arial" font-size="10" fill="#666">Map to OMOP Domain</text>
  
  <!-- Standard Concept Found Decision -->
  <polygon points="250,340 360,370 250,400 140,370" fill="#fff3e0" stroke="#f57c00" stroke-width="2"/>
  <text x="250" y="365" text-anchor="middle" font-family="Arial" font-size="11" font-weight="bold">Standard</text>
  <text x="250" y="380" text-anchor="middle" font-family="Arial" font-size="11" font-weight="bold">Concept Found?</text>
  
  <!-- 4. Handle Non-standard Concepts -->
  <rect x="20" y="450" width="200" height="80" rx="10" fill="#e8f5e8" stroke="#2e7d32" stroke-width="2"/>
  <text x="120" y="475" text-anchor="middle" font-family="Arial" font-size="12" font-weight="bold">4. Handle Non-standard</text>
  <text x="120" y="490" text-anchor="middle" font-family="Arial" font-size="12" font-weight="bold">Concepts</text>
  <text x="120" y="510" text-anchor="middle" font-family="Arial" font-size="10" fill="#666">Use concept_relationship</text>
  
  <!-- 5. Populate OMOP Fields -->
  <rect x="150" y="600" width="200" height="80" rx="10" fill="#f3e5f5" stroke="#7b1fa2" stroke-width="2"/>
  <text x="250" y="625" text-anchor="middle" font-family="Arial" font-size="12" font-weight="bold">5. Populate OMOP</text>
  <text x="250" y="640" text-anchor="middle" font-family="Arial" font-size="12" font-weight="bold">Fields</text>
  <text x="250" y="660" text-anchor="middle" font-family="Arial" font-size="10" fill="#666">Fill target table</text>
  
  <!-- Arrows -->
  <line x1="250" y1="110" x2="250" y2="150" stroke="#333" stroke-width="2" marker-end="url(#arrowhead)"/>
  <line x1="250" y1="210" x2="250" y2="250" stroke="#333" stroke-width="2" marker-end="url(#arrowhead)"/>
  <line x1="250" y1="310" x2="250" y2="340" stroke="#333" stroke-width="2" marker-end="url(#arrowhead)"/>
  <line x1="190" y1="385" x2="120" y2="450" stroke="#333" stroke-width="2" marker-end="url(#arrowhead)"/>
  <line x1="250" y1="400" x2="250" y2="600" stroke="#333" stroke-width="2" marker-end="url(#arrowhead)"/>
  <line x1="120" y1="530" x2="250" y2="600" stroke="#333" stroke-width="2" marker-end="url(#arrowhead)"/>
  
  <!-- Labels -->
  <text x="165" y="425" font-family="Arial" font-size="11" font-weight="bold" fill="#666">No</text>
  <text x="270" y="425" font-family="Arial" font-size="11" font-weight="bold" fill="#666">Yes</text>
</svg>